<?xml version="1.0" encoding="UTF-8" standalone="no"?>
<!-- Created with Inkscape (http://www.inkscape.org/) -->

<svg
   xmlns:dc="http://purl.org/dc/elements/1.1/"
   xmlns:cc="http://creativecommons.org/ns#"
   xmlns:rdf="http://www.w3.org/1999/02/22-rdf-syntax-ns#"
   xmlns:svg="http://www.w3.org/2000/svg"
   xmlns="http://www.w3.org/2000/svg"
   xmlns:sodipodi="http://sodipodi.sourceforge.net/DTD/sodipodi-0.dtd"
   xmlns:inkscape="http://www.inkscape.org/namespaces/inkscape"
   width="249.03619mm"
   height="128.81184mm"
   viewBox="0 0 249.03619 128.81184"
   version="1.1"
   id="svg8"
   inkscape:version="0.92.3 (2405546, 2018-03-11)"
   sodipodi:docname="103FM.svg">
  <defs
     id="defs2" />
  <sodipodi:namedview
     id="base"
     pagecolor="#ffffff"
     bordercolor="#666666"
     borderopacity="1.0"
     inkscape:pageopacity="0.0"
     inkscape:pageshadow="2"
     inkscape:zoom="0.35"
     inkscape:cx="1119.191"
     inkscape:cy="6.2811087"
     inkscape:document-units="mm"
     inkscape:current-layer="layer1"
     showgrid="false"
     fit-margin-top="0"
     fit-margin-left="0"
     fit-margin-right="0"
     fit-margin-bottom="0"
     inkscape:window-width="1920"
     inkscape:window-height="1005"
     inkscape:window-x="-9"
     inkscape:window-y="-9"
     inkscape:window-maximized="1" />
  <metadata
     id="metadata5">
    <rdf:RDF>
      <cc:Work
         rdf:about="">
        <dc:format>image/svg+xml</dc:format>
        <dc:type
           rdf:resource="http://purl.org/dc/dcmitype/StillImage" />
        <dc:title></dc:title>
      </cc:Work>
    </rdf:RDF>
  </metadata>
  <g
     inkscape:label="Layer 1"
     inkscape:groupmode="layer"
     id="layer1"
     transform="translate(321.82167,-21.683363)">
    <path
       d="M -321.82167,21.683363 H -72.785471 V 150.49521 H -321.82167 V 21.683363"
       id="path1377-9"
       inkscape:connector-curvature="0"
       style="vector-effect:none;fill:#3fcac5;fill-opacity:1;fill-rule:evenodd;stroke:none;stroke-width:0.85874552;stroke-linecap:square;stroke-linejoin:bevel" />
    <g
       aria-label="3"
       transform="matrix(17.883531,0,0,17.883531,-10570.783,-3136.7382)"
       style="font-style:normal;font-variant:normal;font-weight:normal;font-stretch:normal;font-size:5.4666667px;line-height:1000%;font-family:'Clarendon BT';-inkscape-font-specification:'Clarendon BT';letter-spacing:0px;word-spacing:0px;fill:#000000;fill-opacity:1;stroke:none;stroke-width:1px;stroke-linecap:butt;stroke-linejoin:miter;stroke-opacity:1"
       id="flowRoot3019">
      <path
         d="m 582.19629,180.43171 v -0.45912 q 0.29095,-0.0134 0.42975,-0.11478 0.1388,-0.10143 0.1388,-0.30696 0,-0.24024 -0.16282,-0.38438 -0.16283,-0.14681 -0.43776,-0.14681 -0.1655,0 -0.28028,0.0481 -0.1121,0.0454 -0.18951,0.14414 0.15214,0 0.24824,0.0988 0.0961,0.0988 0.0961,0.25625 0,0.21354 -0.13079,0.32565 -0.1308,0.11211 -0.3737,0.11211 -0.2349,0 -0.38171,-0.1388 -0.14681,-0.14147 -0.14681,-0.36836 0,-0.45111 0.41374,-0.7207 0.41374,-0.2696 1.1211,-0.2696 0.6246,0 0.97428,0.24291 0.34967,0.24023 0.34967,0.66998 0,0.26693 -0.15215,0.44844 -0.15214,0.17884 -0.45644,0.27227 0.37103,0.12011 0.55254,0.33632 0.18151,0.21355 0.18151,0.53386 0,0.47246 -0.39505,0.74205 -0.39506,0.2696 -1.0864,0.2696 -0.78209,0 -1.18782,-0.22956 -0.40306,-0.22955 -0.40306,-0.67265 0,-0.26426 0.1735,-0.43509 0.1735,-0.17084 0.43776,-0.17084 0.2349,0 0.37637,0.12813 0.14414,0.12812 0.14414,0.34166 0,0.18952 -0.10677,0.28829 -0.1041,0.0961 -0.33099,0.12011 0.10677,0.0641 0.24023,0.0961 0.13347,0.0294 0.29629,0.0294 0.31765,0 0.49115,-0.14414 0.1735,-0.14681 0.1735,-0.41908 0,-0.25358 -0.15749,-0.38704 -0.15748,-0.13613 -0.45911,-0.13613 z"
         style="font-style:normal;font-variant:normal;font-weight:bold;font-stretch:normal;font-family:'Clarendon Blk BT';-inkscape-font-specification:'Clarendon Blk BT Bold';fill:#000000"
         id="path854" />
    </g>
    <g
       aria-label="fm"
       transform="matrix(4.858985,0,0,4.858985,-2948.0816,-812.23353)"
       style="font-style:normal;font-variant:normal;font-weight:normal;font-stretch:normal;font-size:5.4666667px;line-height:1000%;font-family:'Clarendon BT';-inkscape-font-specification:'Clarendon BT';letter-spacing:0px;word-spacing:0px;fill:#000000;fill-opacity:1;stroke:none;stroke-width:1px;stroke-linecap:butt;stroke-linejoin:miter;stroke-opacity:1"
       id="flowRoot3005">
      <path
         d="m 581.21133,179.84714 h -0.38171 v -0.49916 h 0.38171 v -0.14681 q 0,-0.54987 0.28828,-0.79277 0.28828,-0.24557 0.92624,-0.24557 0.4431,0 0.70735,0.1735 0.26693,0.17083 0.26693,0.45377 0,0.18418 -0.13346,0.3043 -0.1308,0.11745 -0.339,0.11745 -0.18418,0 -0.30163,-0.0988 -0.11745,-0.0988 -0.11745,-0.25092 0,-0.0988 0.048,-0.17617 0.0507,-0.0774 0.14681,-0.13613 -0.048,-0.0134 -0.0827,-0.0187 -0.032,-0.008 -0.0587,-0.008 -0.14681,0 -0.21087,0.1041 -0.0614,0.1041 -0.0614,0.37103 v 0.34967 h 0.47513 v 0.49916 h -0.47513 v 1.3373 q 0,0.16283 0.048,0.21354 0.0507,0.0507 0.2082,0.0507 h 0.22956 v 0.48047 h -1.9459 v -0.48047 h 0.1308 q 0.15481,0 0.20286,-0.048 0.048,-0.0481 0.048,-0.2082 z"
         style="font-style:normal;font-variant:normal;font-weight:bold;font-stretch:normal;font-family:'Clarendon Blk BT';-inkscape-font-specification:'Clarendon Blk BT Bold';fill:#000000"
         id="path849" />
      <path
         d="m 584.41712,179.67096 q 0.20287,-0.21354 0.43242,-0.31764 0.22956,-0.1041 0.50717,-0.1041 0.25625,0 0.43509,0.0854 0.17884,0.0854 0.29362,0.26158 0.18951,-0.17083 0.4084,-0.25892 0.22154,-0.0881 0.45911,-0.0881 0.48848,0 0.69134,0.21621 0.20553,0.21354 0.20553,0.74206 v 0.98496 q 0,0.15749 0.0507,0.2082 0.0507,0.048 0.2082,0.048 h 0.0641 v 0.48047 h -1.62826 v -0.48047 q 0.14147,-0.005 0.18418,-0.0507 0.0454,-0.048 0.0454,-0.20553 v -0.93158 q 0,-0.23489 -0.0667,-0.33366 -0.0641,-0.10143 -0.21888,-0.10143 -0.17618,0 -0.26159,0.14414 -0.0828,0.14147 -0.0828,0.44577 v 0.77676 q 0,0.16015 0.0347,0.2082 0.0374,0.048 0.14147,0.048 h 0.0587 v 0.48047 h -1.53483 v -0.48047 h 0.0534 q 0.1041,0 0.1388,-0.0507 0.0374,-0.0507 0.0374,-0.20553 v -0.93158 q 0,-0.23489 -0.0667,-0.33366 -0.0667,-0.10143 -0.22422,-0.10143 -0.1735,0 -0.25625,0.14414 -0.0827,0.14414 -0.0827,0.45645 v 0.76608 q 0,0.15215 0.0454,0.20553 0.048,0.0507 0.17351,0.0507 h 0.024 v 0.48047 h -1.6683 v -0.48047 h 0.0934 q 0.15749,0 0.20553,-0.048 0.0507,-0.0507 0.0507,-0.2082 v -1.10508 q 0,-0.16016 -0.0507,-0.2082 -0.048,-0.048 -0.20553,-0.048 h -0.0934 v -0.48314 h 1.3987 z"
         style="font-style:normal;font-variant:normal;font-weight:bold;font-stretch:normal;font-family:'Clarendon Blk BT';-inkscape-font-specification:'Clarendon Blk BT Bold';fill:#000000"
         id="path851" />
    </g>
    <path
       d="m -218.29103,114.2538 c -10.10391,0 -19.60131,-4.40468 -25.41287,-11.77483 -3.80287,-4.759619 -5.81154,-10.408336 -5.81154,-16.321494 0,-15.469649 14.02183,-28.062603 31.24197,-28.062603 17.23964,0 31.28098,12.594712 31.28098,28.062603 0,5.913158 -2.0087,11.561875 -5.83108,16.339244 -5.84859,7.3524 -15.3655,11.75708 -25.46746,11.75708"
       id="path1391-6"
       inkscape:connector-curvature="0"
       style="vector-effect:none;fill:#ffffff;fill-opacity:1;fill-rule:nonzero;stroke:none;stroke-width:0.19501853;stroke-linecap:square;stroke-linejoin:bevel" />
    <path
       d="m -189.25276,86.323264 c 0,4.919384 -2.1062,9.476738 -5.61654,13.139658 -5.28499,5.579558 -13.86582,9.157298 -23.53874,9.157298 -9.67291,0 -18.21473,-3.59903 -23.49973,-9.157298 -3.51033,-3.66292 -5.61653,-8.220274 -5.61653,-13.139658 0,-12.309105 13.04671,-22.275644 29.11626,-22.275644 16.12804,0 29.15528,9.987837 29.15528,22.275644"
       id="path1397-2"
       inkscape:connector-curvature="0"
       style="vector-effect:none;fill:#68111e;fill-opacity:1;fill-rule:nonzero;stroke:none;stroke-width:0.20379208;stroke-linecap:square;stroke-linejoin:bevel" />
    <path
       d="m -227.50741,77.881941 c 0,-1.36727 4.26854,-1.067137 5.83591,-0.433522 1.56735,0.63361 0.43351,2.634497 2.83458,2.634497 2.40107,0 1.26724,-2.000887 2.83459,-2.634497 1.56736,-0.633615 5.83591,-0.933748 5.83591,0.433522 0,1.367268 -0.96707,3.434852 -2.53446,5.168953 -1.56733,1.734109 -3.73497,3.134722 -6.13604,3.134722 -2.40107,0 -4.56867,-1.400613 -6.13603,-3.134722 -1.56736,-1.734101 -2.53446,-3.801685 -2.53446,-5.168953"
       id="path1403-8"
       inkscape:connector-curvature="0"
       style="vector-effect:none;fill:#450b14;fill-opacity:1;fill-rule:nonzero;stroke:none;stroke-width:0.33348095;stroke-linecap:square;stroke-linejoin:bevel" />
    <path
       d="m -192.6461,96.800045 c -5.77254,7.261945 -15.17244,11.968375 -25.74243,11.968375 -10.58953,0 -19.95041,-4.70643 -25.70345,-11.968375 5.73353,-7.261946 15.13343,-12.010965 25.70345,-12.010965 10.62851,0 19.96989,4.749019 25.74243,12.010965"
       id="path1409-4"
       inkscape:connector-curvature="0"
       style="vector-effect:none;fill:#dd959d;fill-opacity:1;fill-rule:nonzero;stroke:none;stroke-width:0.20379208;stroke-linecap:square;stroke-linejoin:bevel" />
    <path
       d="m -218.29103,114.2538 c -10.10391,0 -19.60131,-4.40468 -25.41287,-11.77483 -3.80287,-4.759619 -5.81154,-10.408336 -5.81154,-16.321494 0,-15.469649 14.02183,-28.062603 31.24197,-28.062603 17.23964,0 31.28098,12.594712 31.28098,28.062603 0,5.913158 -2.0087,11.561875 -5.83108,16.339244 -5.84859,7.3524 -15.3655,11.75708 -25.46746,11.75708"
       id="path1415-5"
       inkscape:connector-curvature="0"
       style="vector-effect:none;fill:none;fill-rule:evenodd;stroke:#000000;stroke-width:7.80074215;stroke-linecap:round;stroke-linejoin:round;stroke-opacity:1" />
    <path
       style="fill:#000000;stroke-width:0.21889046"
       d="m -289.18936,112.75583 v -4.24828 l 3.43864,-0.12626 c 5.00833,-0.18386 5.89171,-0.56775 6.36025,-2.76391 0.1665,-0.78086 0.24407,-5.981309 0.24407,-16.385402 V 73.990502 h -5.02148 -5.02148 v -4.358874 -4.358872 l 1.64973,-0.150274 c 5.50093,-0.50106 10.1158,-2.914417 11.81169,-6.17693 l 0.62056,-1.193836 7.69596,-5.26e-4 7.69596,-5.23e-4 0.002,23.756243 c 8.3e-4,15.047404 0.0807,24.04379 0.2181,24.54064 0.26258,0.95013 0.98321,1.67009 1.98365,1.98182 0.4095,0.12759 2.14453,0.28699 3.85567,0.35421 l 3.11113,0.12223 v 4.24915 l -5e-4,4.24916 h -19.32178 -19.32177 z"
       id="path3000"
       inkscape:connector-curvature="0" />
  </g>
</svg>
