<?xml version="1.0" encoding="UTF-8" standalone="no"?>
<!-- Generator: Adobe Illustrator 16.0.0, SVG Export Plug-In . SVG Version: 6.00 Build 0)  -->

<svg
   xmlns:dc="http://purl.org/dc/elements/1.1/"
   xmlns:cc="http://creativecommons.org/ns#"
   xmlns:rdf="http://www.w3.org/1999/02/22-rdf-syntax-ns#"
   xmlns:svg="http://www.w3.org/2000/svg"
   xmlns="http://www.w3.org/2000/svg"
   xmlns:xlink="http://www.w3.org/1999/xlink"
   xmlns:sodipodi="http://sodipodi.sourceforge.net/DTD/sodipodi-0.dtd"
   xmlns:inkscape="http://www.inkscape.org/namespaces/inkscape"
   version="1.1"
   x="0px"
   y="0px"
   width="432.993px"
   height="191px"
   viewBox="0 0 432.993 191"
   enable-background="new 0 0 432.993 191"
   xml:space="preserve"
   id="svg65"
   sodipodi:docname="Eco_99_fm.svg"
   inkscape:version="0.92.3 (2405546, 2018-03-11)"><metadata
   id="metadata71"><rdf:RDF><cc:Work
       rdf:about=""><dc:format>image/svg+xml</dc:format><dc:type
         rdf:resource="http://purl.org/dc/dcmitype/StillImage" /><dc:title></dc:title></cc:Work></rdf:RDF></metadata><defs
   id="defs69"><linearGradient
   inkscape:collect="always"
   id="linearGradient941"><stop
     style="stop-color:#00b5b4;stop-opacity:0.7"
     offset="0"
     id="stop937" /><stop
     style="stop-color:#ffffff;stop-opacity:0;"
     offset="1"
     id="stop939" /></linearGradient>
	

		
	
	

		
	
	

		
	
	

		
	
	

		
	
	

		
	<linearGradient
   inkscape:collect="always"
   xlink:href="#linearGradient941"
   id="linearGradient943"
   x1="245.43863"
   y1="83.923874"
   x2="253.44199"
   y2="89.052299"
   gradientUnits="userSpaceOnUse" />
	

	

		
		
		
	
		
		
	</defs><sodipodi:namedview
   pagecolor="#ffffff"
   bordercolor="#666666"
   borderopacity="1"
   objecttolerance="10"
   gridtolerance="10"
   guidetolerance="10"
   inkscape:pageopacity="0"
   inkscape:pageshadow="2"
   inkscape:window-width="1920"
   inkscape:window-height="1005"
   id="namedview67"
   showgrid="false"
   inkscape:snap-bbox="true"
   inkscape:bbox-nodes="true"
   inkscape:bbox-paths="true"
   inkscape:snap-bbox-edge-midpoints="true"
   inkscape:snap-bbox-midpoints="true"
   inkscape:object-paths="true"
   inkscape:object-nodes="true"
   inkscape:snap-intersection-paths="true"
   inkscape:snap-smooth-nodes="true"
   inkscape:snap-object-midpoints="true"
   inkscape:snap-center="true"
   inkscape:zoom="1.0488621"
   inkscape:cx="285.67473"
   inkscape:cy="-44.080432"
   inkscape:window-x="-9"
   inkscape:window-y="-9"
   inkscape:window-maximized="1"
   inkscape:current-layer="svg65"
   inkscape:snap-global="true"
   showguides="false"><sodipodi:guide
     position="208.36914,79.236329"
     orientation="8.46875,-4.84961"
     id="guide906"
     inkscape:locked="false" /><sodipodi:guide
     position="203.51953,70.767579"
     orientation="0.0566,-0.0332"
     id="guide908"
     inkscape:locked="false" /><sodipodi:guide
     position="203.48633,70.710979"
     orientation="12.51367,-7.43164"
     id="guide910"
     inkscape:locked="false" /><sodipodi:guide
     position="253.16196,109.72616"
     orientation="-42.49414,23.78125"
     id="guide912"
     inkscape:locked="false" /><sodipodi:guide
     position="212.20508,149.00004"
     orientation="4e-005,0"
     id="guide914"
     inkscape:locked="false" /></sodipodi:namedview>
<g
   id="_x3C_Background_x3E__xA0_0_xA0_Image_1_"
   display="none">
</g>
<ellipse
   cx="239.70599"
   cy="95.5"
   rx="95"
   ry="95.5"
   id="ellipse3"
   style="clip-rule:evenodd;fill:#00b5b4;fill-rule:evenodd" />
<path
   d="m 41.822,83.693 c -1.793,-1.964 -3.986,-3.42 -6.579,-4.369 -2.594,-0.949 -5.534,-1.423 -8.824,-1.423 -3.29,0 -6.223,0.517 -8.801,1.548 -2.579,1.032 -4.756,2.555 -6.535,4.569 -1.778,2.015 -3.142,4.519 -4.089,7.515 -0.949,2.996 -1.423,6.459 -1.423,10.386 0,3.962 0.474,7.457 1.423,10.486 0.948,3.029 2.312,5.567 4.089,7.614 1.778,2.048 3.956,3.604 6.535,4.669 2.578,1.065 5.512,1.598 8.801,1.598 2.578,0 4.949,-0.249 7.112,-0.749 2.163,-0.499 4.104,-1.314 5.823,-2.446 1.718,-1.132 3.185,-2.629 4.4,-4.494 1.215,-1.864 2.134,-4.145 2.756,-6.841 H 32.065 c -0.178,0.966 -0.467,1.798 -0.867,2.497 -0.4,0.699 -0.86,1.29 -1.378,1.772 -0.519,0.482 -1.074,0.841 -1.667,1.073 -0.593,0.233 -1.171,0.35 -1.733,0.35 -0.771,0 -1.549,-0.25 -2.334,-0.749 -0.785,-0.499 -1.497,-1.224 -2.133,-2.172 -0.638,-0.949 -1.164,-2.122 -1.578,-3.521 -0.416,-1.397 -0.623,-2.996 -0.623,-4.793 h 27.382 c 0.089,-0.832 0.148,-1.564 0.178,-2.197 0.029,-0.632 0.044,-1.331 0.044,-2.098 0,-4.127 -0.474,-7.706 -1.422,-10.735 -0.949,-3.029 -2.319,-5.525 -4.112,-7.49 z m -8.957,14.78 H 19.752 c 0.059,-1.897 0.296,-3.52 0.711,-4.868 0.415,-1.348 0.94,-2.447 1.578,-3.295 0.637,-0.849 1.333,-1.473 2.089,-1.873 0.755,-0.399 1.518,-0.599 2.289,-0.599 0.77,0 1.548,0.217 2.333,0.649 0.785,0.433 1.496,1.083 2.134,1.948 0.637,0.866 1.141,1.964 1.511,3.295 0.372,1.331 0.527,2.913 0.468,4.743 z"
   id="path7"
   inkscape:connector-curvature="0"
   style="fill:#231f20" /><path
   d="m 77.772,111.556 c -0.267,1.132 -0.638,2.021 -1.111,2.671 -0.474,0.649 -1.038,1.099 -1.689,1.349 -0.652,0.249 -1.363,0.374 -2.134,0.374 -0.919,0 -1.749,-0.175 -2.489,-0.524 -0.741,-0.35 -1.378,-1.015 -1.912,-1.997 -0.533,-0.981 -0.949,-2.354 -1.245,-4.119 -0.296,-1.765 -0.444,-4.062 -0.444,-6.891 0,-2.797 0.148,-5.109 0.444,-6.941 0.296,-1.831 0.711,-3.287 1.245,-4.369 0.534,-1.082 1.17,-1.83 1.912,-2.247 0.74,-0.416 1.57,-0.624 2.489,-0.624 0.651,0 1.245,0.092 1.778,0.274 0.533,0.184 1.007,0.517 1.422,0.999 0.415,0.483 0.763,1.132 1.044,1.947 0.281,0.816 0.511,1.856 0.689,3.121 h 14.18 c -0.178,-2.929 -0.763,-5.442 -1.756,-7.54 -0.993,-2.097 -2.319,-3.82 -3.979,-5.168 -1.66,-1.348 -3.623,-2.347 -5.89,-2.996 -2.267,-0.649 -4.764,-0.974 -7.49,-0.974 -3.29,0 -6.223,0.517 -8.801,1.548 -2.578,1.032 -4.756,2.555 -6.535,4.569 -1.778,2.015 -3.141,4.519 -4.089,7.515 -0.949,2.996 -1.422,6.459 -1.422,10.386 0,3.962 0.474,7.44 1.422,10.437 0.948,2.996 2.312,5.51 4.089,7.54 1.778,2.03 3.957,3.562 6.535,4.594 2.578,1.031 5.512,1.548 8.801,1.548 2.874,0 5.482,-0.35 7.824,-1.049 2.34,-0.699 4.356,-1.798 6.045,-3.296 1.689,-1.498 3.007,-3.445 3.956,-5.842 0.948,-2.396 1.496,-5.293 1.645,-8.688 H 78.217 c -0.029,1.796 -0.177,3.261 -0.445,4.393 z"
   id="path9"
   inkscape:connector-curvature="0"
   style="fill:#231f20" /><path
   d="m 136.148,91.183 c -0.949,-3.028 -2.312,-5.525 -4.089,-7.49 -1.778,-1.964 -3.956,-3.42 -6.535,-4.369 -2.578,-0.949 -5.512,-1.423 -8.801,-1.423 -3.289,0 -6.231,0.517 -8.824,1.548 -2.593,1.032 -4.778,2.555 -6.557,4.569 -1.778,2.015 -3.134,4.519 -4.067,7.515 -0.934,2.996 -1.4,6.459 -1.4,10.386 0,3.962 0.466,7.44 1.4,10.437 0.934,2.997 2.29,5.518 4.067,7.564 1.778,2.047 3.963,3.588 6.557,4.619 2.593,1.031 5.534,1.548 8.824,1.548 3.29,0 6.223,-0.483 8.801,-1.448 2.579,-0.965 4.756,-2.438 6.535,-4.419 1.778,-1.98 3.141,-4.485 4.089,-7.515 0.948,-3.029 1.422,-6.624 1.422,-10.786 0.001,-4.128 -0.473,-7.707 -1.422,-10.736 z m -13.624,18.2 c -0.311,1.781 -0.749,3.154 -1.311,4.12 -0.563,0.966 -1.223,1.615 -1.978,1.947 -0.756,0.333 -1.593,0.499 -2.512,0.499 -0.919,0 -1.764,-0.175 -2.534,-0.524 -0.771,-0.35 -1.43,-1.015 -1.978,-1.997 -0.549,-0.981 -0.978,-2.354 -1.289,-4.119 -0.312,-1.765 -0.467,-4.062 -0.467,-6.891 0,-2.797 0.148,-5.109 0.444,-6.941 0.296,-1.831 0.726,-3.287 1.289,-4.369 0.563,-1.082 1.223,-1.83 1.978,-2.247 0.756,-0.416 1.607,-0.624 2.556,-0.624 0.918,0 1.756,0.2 2.512,0.599 0.755,0.399 1.415,1.132 1.978,2.197 0.563,1.065 1,2.514 1.311,4.344 0.312,1.831 0.467,4.178 0.467,7.041 0,2.863 -0.155,5.185 -0.466,6.965 z"
   id="path11"
   inkscape:connector-curvature="0"
   style="fill:#231f20" />
<path
   d="m 352.325,61.873 c -1.111,0.433 -2.111,1.182 -3.001,2.247 -0.889,1.065 -1.607,2.489 -2.155,4.269 -0.549,1.781 -0.822,4.037 -0.822,6.766 V 78.7 h -5.557 v 11.135 h 5.557 v 35.203 h 13.291 V 89.834 h 7.201 V 78.7 h -7.379 v -2.347 c 0,-1.231 0.118,-2.205 0.355,-2.921 0.236,-0.715 0.563,-1.248 0.978,-1.598 0.415,-0.35 0.896,-0.565 1.445,-0.649 0.548,-0.083 1.133,-0.125 1.756,-0.125 h 3.822 v -9.837 h -12.091 c -1.155,0 -2.288,0.217 -3.4,0.65 z"
   id="path16"
   inkscape:connector-curvature="0"
   style="fill:#231f20" /><path
   d="m 432.06,89.585 c -0.623,-2.363 -1.556,-4.41 -2.801,-6.142 -1.244,-1.73 -2.794,-3.063 -4.646,-3.995 -1.852,-0.932 -4.022,-1.314 -6.512,-1.148 -2.667,0.2 -4.853,0.957 -6.557,2.272 -1.704,1.315 -2.927,3.388 -3.667,6.216 -1.127,-2.696 -2.786,-4.834 -4.979,-6.416 -2.194,-1.581 -4.905,-2.272 -8.135,-2.072 -1.838,0.167 -3.445,0.574 -4.823,1.223 -1.378,0.649 -2.527,1.64 -3.445,2.971 V 78.7 h -13.024 v 46.337 h 13.024 V 99.671 c 0,-2.995 0.385,-5.259 1.156,-6.791 0.77,-1.531 1.955,-2.297 3.556,-2.297 1.837,0 3.193,0.716 4.067,2.147 0.874,1.432 1.312,3.745 1.312,6.94 v 25.366 h 13.202 V 99.671 c 0,-2.995 0.385,-5.259 1.155,-6.791 0.771,-1.531 1.941,-2.297 3.512,-2.297 1.838,0 3.186,0.716 4.046,2.147 0.858,1.432 1.289,3.745 1.289,6.94 v 25.366 h 13.202 V 97.125 c 10e-4,-2.663 -0.31,-5.176 -0.932,-7.54 z"
   id="path18"
   inkscape:connector-curvature="0"
   style="fill:#231f20" />
<path
   style="fill:#ffffff"
   d="M 267.20508 42 C 248.15126 42 232.70508 57.670034 232.70508 77 C 232.71508 94.798895 245.89095 109.75564 263.32422 111.75781 L 251.05469 132.80273 C 248.23469 137.69573 249.98589 143.90769 254.96289 146.67969 C 259.94189 149.45069 266.26108 147.73089 269.08008 142.83789 L 296.86719 94.876953 L 296.83203 94.855469 C 300.00791 89.455769 301.6912 83.287842 301.70508 77 C 301.70508 57.670034 286.2589 42 267.20508 42 z M 267.40625 62.427734 C 274.78408 62.599456 280.95508 68.913189 280.95508 77.251953 C 280.95508 86.146635 273.93362 92.857897 265.91602 92.291016 C 258.5317 91.767741 252.95703 85.160853 252.95703 77.498047 C 252.95703 69.835241 258.5317 63.131618 265.91602 62.478516 C 266.41711 62.434166 266.9144 62.416294 267.40625 62.427734 z "
   id="path918" />
<g
   id="Ellipse_2_copy_1_"
   enable-background="new    ">
	<g
   id="Ellipse_2_copy">
		
	</g>
</g>
<g
   id="Rounded_Rectangle_1_copy_1_"
   enable-background="new    ">
	<g
   id="Rounded_Rectangle_1_copy">
		
	</g>
</g>
<g
   id="Rectangle_1_copy_2_1_"
   enable-background="new    ">
	<g
   id="Rectangle_1_copy_2">
		
	</g>
</g>
<path
   style="clip-rule:evenodd;fill:url(#linearGradient943);fill-opacity:1;fill-rule:evenodd"
   d="m 255.04492,69.664062 -15.66211,28.003907 c 0.84465,1.168132 1.76095,2.279293 2.74024,3.332031 5.42381,5.83061 12.81703,9.79491 21.20117,10.75781 0,0 5.46469,-18.251015 5.94922,-19.671872 -1.08872,0.201959 -2.21027,0.286186 -3.35742,0.205078 -6.29851,-0.446331 -11.26678,-5.323504 -12.59571,-11.501954 -0.005,-0.0029 -0.0104,-0.005 -0.0156,-0.0078 -0.004,-0.03504 -0.007,-0.07423 -0.0117,-0.109375 -0.21292,-1.028559 -0.33594,-2.088635 -0.33594,-3.173828 0,-2.804167 0.75198,-5.475676 2.06055,-7.773438 0.0106,-0.02104 0.0166,-0.03944 0.0273,-0.06055 z"
   id="path927"
   inkscape:connector-curvature="0"
   sodipodi:nodetypes="ccsccccccscc" /><path
   style="clip-rule:evenodd;fill:#ffffff;fill-rule:evenodd"
   d="m 212.20508,42 c -19.05382,0 -34.5,15.670034 -34.5,35 0.01,17.816686 13.21079,32.78269 30.66406,34.76367 l -4.84961,8.46875 -0.0332,0.0566 -7.43164,12.51367 c -2.82,4.893 -1.0688,11.10496 3.9082,13.87696 4.979,2.771 11.29819,1.0512 14.11719,-3.8418 l 23.78125,-42.49414 c 0,0 8.77922,-14.50011 8.84375,-23.34375 0,-19.329966 -15.44618,-35 -34.5,-35 z m 0.0781,20.292969 c 7.44445,0.173272 13.67188,6.542969 13.67188,14.957031 0,8.975 -7.08578,15.747781 -15.17578,15.175781 -7.451,-0.528 -13.07422,-7.193781 -13.07422,-14.925781 0,-7.732 5.62322,-14.49725 13.07422,-15.15625 0.50562,-0.04475 1.00761,-0.06233 1.5039,-0.05078 z"
   id="path39"
   inkscape:connector-curvature="0"
   sodipodi:nodetypes="scccccccccscscscc" />
<g
   id="Rectangle_1_1_"
   enable-background="new    ">
	<g
   id="Rectangle_1">
		<g
   id="g45">
			
				
		</g>
	</g>
</g>

<g
   id="Rectangle_1_copy_3_1_"
   enable-background="new    ">
	<g
   id="Rectangle_1_copy_3">
		
	</g>
</g>


</svg>