<?xml version="1.0" encoding="UTF-8" standalone="no"?>
<!-- Created with Inkscape (http://www.inkscape.org/) -->

<svg
   xmlns:dc="http://purl.org/dc/elements/1.1/"
   xmlns:cc="http://creativecommons.org/ns#"
   xmlns:rdf="http://www.w3.org/1999/02/22-rdf-syntax-ns#"
   xmlns:svg="http://www.w3.org/2000/svg"
   xmlns="http://www.w3.org/2000/svg"
   xmlns:sodipodi="http://sodipodi.sourceforge.net/DTD/sodipodi-0.dtd"
   xmlns:inkscape="http://www.inkscape.org/namespaces/inkscape"
   width="213.08665mm"
   height="263.11829mm"
   viewBox="0 0 213.08665 263.11829"
   version="1.1"
   id="svg8"
   inkscape:version="0.92.3 (2405546, 2018-03-11)"
   sodipodi:docname="GaltzLogo.svg">
  <defs
     id="defs2" />
  <sodipodi:namedview
     id="base"
     pagecolor="#ffffff"
     bordercolor="#666666"
     borderopacity="1.0"
     inkscape:pageopacity="0.0"
     inkscape:pageshadow="2"
     inkscape:zoom="0.35"
     inkscape:cx="852.68357"
     inkscape:cy="285.80285"
     inkscape:document-units="mm"
     inkscape:current-layer="layer1"
     showgrid="false"
     inkscape:window-width="1920"
     inkscape:window-height="1005"
     inkscape:window-x="-9"
     inkscape:window-y="-9"
     inkscape:window-maximized="1"
     fit-margin-top="0"
     fit-margin-left="0"
     fit-margin-right="0"
     fit-margin-bottom="0" />
  <metadata
     id="metadata5">
    <rdf:RDF>
      <cc:Work
         rdf:about="">
        <dc:format>image/svg+xml</dc:format>
        <dc:type
           rdf:resource="http://purl.org/dc/dcmitype/StillImage" />
        <dc:title></dc:title>
      </cc:Work>
    </rdf:RDF>
  </metadata>
  <g
     inkscape:label="Layer 1"
     inkscape:groupmode="layer"
     id="layer1"
     transform="translate(332.57312,38.666287)">
    <g
       id="g20584"
       transform="matrix(6.2786489,0,0,6.2786489,-6473.115,-151.68176)">
      <path
         style="vector-effect:none;fill:#ffffff;fill-opacity:1;fill-rule:evenodd;stroke:none;stroke-width:1;stroke-linecap:square;stroke-linejoin:bevel"
         inkscape:connector-curvature="0"
         id="path12529"
         d="m 990.99985,27.071038 -7.07107,-7.071068 1.41421,-1.414214 7.07107,7.071068 -1.41421,1.414214" />
      <path
         style="vector-effect:none;fill:#ffffff;fill-opacity:1;fill-rule:evenodd;stroke:none;stroke-width:1;stroke-linecap:square;stroke-linejoin:bevel"
         inkscape:connector-curvature="0"
         id="path12533"
         d="m 990.99985,27.071038 -1.41421,-1.414214 7.07106,-7.071068 1.41422,1.414214 -7.07107,7.071068" />
      <path
         style="vector-effect:none;fill:#154c85;fill-opacity:1;fill-rule:evenodd;stroke:none;stroke-width:1;stroke-linecap:square;stroke-linejoin:bevel"
         inkscape:connector-curvature="0"
         id="path12681"
         d="m 978.01029,17.999972 h 29.50811 c 2e-4,0.02291 0.01,0.04424 0.017,0.06407 0,0.139513 -0.01,0.279026 -0.01,0.418539 -4e-4,9.657814 0,19.315414 0.01,28.973214 4e-4,0.3479 -0.098,0.4185 -0.4219,0.4142 -1.4042,-0.0183 -2.8089,0.0012 -4.2131,-0.0155 -0.2964,-0.0035 -0.3568,0.0888 -0.3552,0.3714 0.012,2.1293 0.01,4.2587 0.01,6.3881 -8e-4,0.756 -0.01,1.5118 -0.016,2.2678 -0.8108,-1.0633 -1.6206,-2.1274 -2.4329,-3.1896 -0.7352,-0.9614 -1.4733,-1.9208 -2.21,-2.881 -0.695,-0.9255 -1.393,-1.8487 -2.0818,-2.7789 -0.1142,-0.1543 -0.2502,-0.1733 -0.4187,-0.1732 -5.7732,0.0032 -11.54652,0.0038 -17.31989,0.0048 -0.11481,-0.1313 -0.0583,-0.29 -0.0583,-0.4346 -0.003,-9.8098 -0.003,-19.61956 -0.004,-29.429328" />
      <path
         style="vector-effect:none;fill:#fdcf05;fill-opacity:1;fill-rule:evenodd;stroke:none;stroke-width:1;stroke-linecap:square;stroke-linejoin:bevel"
         inkscape:connector-curvature="0"
         id="path12687"
         d="m 997.8926,50.8089 c -0.1259,0.0081 -0.2519,0.0234 -0.3777,0.0234 -4.9065,0.0012 -9.81303,-5e-4 -14.71954,0.0051 -0.2532,3e-4 -0.46439,-0.0585 -0.67428,-0.2019 -1.24695,-0.8517 -2.50043,-1.6936 -3.75051,-2.5405 -0.1043,-0.0707 -0.19948,-0.1552 -0.29863,-0.2332 5.77365,-9e-4 11.54696,-0.0014 17.32016,-0.0048 0.1686,-10e-5 0.3045,0.0189 0.4187,0.1732 0.6888,0.9302 1.3868,1.8532 2.0818,2.7787 m 9.6429,-32.744876 c 0.4428,0.200408 0.8148,0.513965 1.2156,0.780772 0.9875,0.657474 1.966,1.328634 2.9545,1.984524 0.1605,0.10644 0.236,0.2127 0.2359,0.41627 -0.01,9.76011 -0.01,19.52031 5e-4,29.28051 2e-4,0.2501 -0.08,0.3132 -0.3149,0.3117 -1.4273,-0.0089 -2.8547,0.0056 -4.2817,-0.0122 -0.3126,-0.0039 -0.377,0.0903 -0.3757,0.3918 0.012,2.7337 0.01,5.4675 0.01,8.2013 -10e-5,0.1627 -0.01,0.3254 -0.011,0.4881 h -0.069 c -0.1219,-0.2077 -0.3442,-0.2901 -0.5277,-0.4153 -1.2019,-0.8201 -2.4109,-1.6295 -3.6168,-2.4437 -0.075,-0.051 -0.1444,-0.1123 -0.2165,-0.1687 0.01,-0.7559 0.015,-1.5117 0.016,-2.2676 0,-2.1292 0.01,-4.2584 -0.01,-6.3876 0,-0.2827 0.059,-0.375 0.3551,-0.3714 1.4043,0.0166 2.8089,-0.0028 4.2132,0.0155 0.3237,0.0042 0.4223,-0.0664 0.4219,-0.4142 -0.01,-9.657 -0.01,-19.3142 -0.01,-28.971266 0,-0.139503 0,-0.279006 0.01,-0.41851" />
      <path
         style="vector-effect:none;fill:#fefefe;fill-opacity:1;fill-rule:evenodd;stroke:none;stroke-width:1;stroke-linecap:square;stroke-linejoin:bevel"
         inkscape:connector-curvature="0"
         id="path12693"
         d="m 986.49341,31.7354 c 0.0838,-0.1207 0.0438,-0.2497 0.0439,-0.3697 0.003,-2.3275 0.002,-4.65504 0.002,-6.98255 9e-5,-0.48118 0.008,-0.49143 0.47977,-0.48854 0.44864,0.0027 0.89911,-0.0087 1.34532,0.02822 0.6168,0.05103 1.0007,0.46675 1.0534,1.08986 0.0118,0.13885 0.0141,0.27891 0.0141,0.41841 8e-4,2.50203 7e-4,5.0042 4e-4,7.5062 -1e-4,0.4877 -0.005,0.4921 -0.4758,0.4926 -0.6102,8e-4 -1.22102,0.0152 -1.83053,-0.0061 -0.32305,-0.0114 -0.39151,0.0957 -0.33816,0.4068 0.40441,2.3599 0.79536,4.722 1.19018,7.0835 0.0978,0.5846 0.18481,1.1712 0.29611,1.753 0.0475,0.248 -0.0492,0.3171 -0.2666,0.3169 -1.83086,-0.0012 -3.66161,-0.0029 -5.49245,0.0022 -0.2227,6e-4 -0.30996,-0.0841 -0.30821,-0.3076 0.006,-0.768 0.008,-1.5362 -0.002,-2.3042 -0.003,-0.2581 0.12062,-0.3134 0.34157,-0.311 0.63319,0.0071 1.26648,0.0031 1.89976,0.0019 0.43187,-8e-4 0.45794,-0.0294 0.38607,-0.4591 -0.38533,-2.3046 -0.77334,-4.6087 -1.15895,-6.9133 -0.46798,-2.7968 -0.92997,-5.59455 -1.40791,-8.38946 -0.0547,-0.32045 0.0264,-0.42401 0.33936,-0.41386 0.47157,0.01537 0.94407,0.0076 1.41611,0.0033 0.60712,-0.0057 0.99613,0.29363 1.20087,0.85947 0.22344,0.61742 0.27099,1.27145 0.38054,1.91151 0.27053,1.58098 0.52134,3.16548 0.78633,4.74738 0.0178,0.1059 0.007,0.2313 0.10449,0.3242" />
      <path
         style="vector-effect:none;fill:#fefefe;fill-opacity:1;fill-rule:evenodd;stroke:none;stroke-width:1;stroke-linecap:square;stroke-linejoin:bevel"
         inkscape:connector-curvature="0"
         id="path12699"
         d="m 999.8215,34.2095 c -0.1818,1.0926 -0.3631,2.1855 -0.5457,3.278 -0.2835,1.6968 -0.5739,3.3923 -0.8465,5.0909 -0.0479,0.2987 -0.1614,0.4191 -0.4691,0.4109 -0.6905,-0.0183 -1.3818,-0.0051 -2.0729,-0.0059 -0.4251,-5e-4 -0.4585,-0.0337 -0.3876,-0.4614 0.23,-1.3877 0.4666,-2.7744 0.6992,-4.1617 0.2499,-1.4905 0.5082,-2.9798 0.7399,-4.4731 0.0549,-0.3545 0.1777,-0.4932 0.5484,-0.4745 0.6318,0.0319 1.2665,5e-4 1.8997,0.0125 0.2887,0.0054 0.3856,-0.0783 0.3324,-0.3896 -0.482,-2.8192 -0.9526,-5.64046 -1.4222,-8.46191 -0.125,-0.75079 -0.1415,-0.65272 0.5162,-0.65636 0.4262,-0.0024 0.8526,0.01 1.2783,-0.0032 0.4989,-0.01546 0.8286,0.22276 1.045,0.657 0.2433,0.48845 0.2796,1.0284 0.3668,1.55317 0.7481,4.50696 1.489,9.01506 2.2313,13.52306 0.1624,0.9863 0.3099,1.9754 0.4899,2.9584 0.059,0.3224 -0.052,0.3863 -0.3347,0.3815 -0.6907,-0.0119 -1.3825,-0.0216 -2.0727,0.0039 -0.3377,0.0124 -0.4658,-0.1133 -0.5185,-0.4386 -0.3557,-2.1922 -0.7251,-4.3822 -1.0911,-6.5727 -0.099,-0.5929 -0.2016,-1.1852 -0.3025,-1.7778 -0.0278,0.0024 -0.0557,0.005 -0.0836,0.0074" />
      <path
         style="vector-effect:none;fill:#fefefe;fill-opacity:1;fill-rule:evenodd;stroke:none;stroke-width:1;stroke-linecap:square;stroke-linejoin:bevel"
         inkscape:connector-curvature="0"
         id="path12705"
         d="m 990.3102,24.03195 c -2e-4,-0.81457 0.009,-1.62933 -0.005,-2.44373 -0.004,-0.26308 0.0995,-0.35425 0.3421,-0.35294 0.7369,0.0039 1.4738,0.0057 2.2107,-9.4e-4 0.255,-0.0023 0.3407,0.10971 0.3363,0.36078 -0.0115,0.63987 0.006,1.2803 -0.009,1.91998 -0.007,0.29149 0.1024,0.38853 0.3849,0.38294 0.7021,-0.01378 1.4046,-0.005 2.107,-0.0044 1.0604,9.3e-4 1.6235,0.66762 1.4598,1.74063 -0.0911,0.59712 -0.1998,1.19155 -0.3,1.78728 -0.7718,4.58483 -1.5433,9.16963 -2.3154,13.75433 -0.085,0.504 -0.1794,1.0065 -0.2571,1.5116 -0.0329,0.2137 -0.1392,0.2987 -0.347,0.2975 -0.7714,-0.004 -1.543,-0.0075 -2.3143,0.0014 -0.2733,0.0032 -0.2989,-0.1316 -0.2609,-0.3558 0.2492,-1.4666 0.4929,-2.9341 0.7376,-4.4014 0.5409,-3.2443 1.0813,-6.4886 1.6222,-9.733 0.0687,-0.4123 0.1435,-0.82375 0.2068,-1.23704 0.0661,-0.43174 0.0578,-0.43807 -0.362,-0.43835 -0.9442,-6.5e-4 -1.8884,-0.01071 -2.8323,0.0061 -0.3181,0.0056 -0.4198,-0.09788 -0.4113,-0.42121 0.021,-0.79074 0.007,-1.5825 0.007,-2.3738" />
    </g>
  </g>
</svg>
