<svg viewBox="0 0 160 105" xmlns="http://www.w3.org/2000/svg"><rect fill="#ffd61c" width="160" height="105"/><path fill="#51305f" d="m 79.259649,15.50744 c -1.1027,0.0363 -2.1914,0.4878 -3.0127,1.3461 l -12.0009,12.2138 c -2.045,2.1291 -4.102,4.2494 -6.1381,6.3846 -1.7538,1.8438 -1.7777,4.3632 -0.0119,6.198 1.7703,1.8361 3.5713,3.6419 5.4023,5.4173 0.4444,0.4294 0.4682,0.6399 0.0238,1.0754 -2.6817,2.6427 -5.336,5.3092 -7.9877,7.9819 -1.2276,1.2331 -1.5831,3.0882 -0.8981,4.6876 0.6907,1.6186 2.2222,2.6216 4.1982,2.6096 1.014,0.029 2.0248,-0.4119 2.8768,-1.2609 3.8229,-3.8258 7.6578,-7.6397 11.4717,-11.4716 1.7297,-1.7358 1.7236,-4.3967 -0.003,-6.1474 -1.8379,-1.8649 -3.6877,-3.7149 -5.5496,-5.5558 -0.3063,-0.3003 -0.3364,-0.4624 -0.0181,-0.7927 l 14.9226,-15.4388 c 0.791,-0.8304 1.217,-1.9425 1.1834,-3.0887 -0.034,-1.1462 -0.5247,-2.2311 -1.3632,-3.0133 -0.876,-0.8024 -1.9927,-1.1815 -3.0954,-1.1451 z m 42.316201,0 c -1.103,0.0363 -2.192,0.4878 -3.013,1.3461 l -12.001,12.2138 c -2.045,2.1291 -4.1021,4.2494 -6.1381,6.3846 -1.753801,1.8438 -1.777701,4.3632 -0.0119,6.198 1.7703,1.8361 3.571,3.6419 5.402,5.4173 0.445,0.4294 0.469,0.6399 0.025,1.0754 -2.6822,2.6427 -5.3369,5.3092 -7.988601,7.9819 -1.2277,1.2331 -1.5832,3.0882 -0.8982,4.6876 0.6907,1.6186 2.2222,2.6216 4.198201,2.6096 1.0142,0.0292 2.0252,-0.4117 2.8776,-1.2609 3.823,-3.8258 7.657,-7.6397 11.471,-11.4716 1.73,-1.7358 1.724,-4.3967 -0.003,-6.1474 -1.838,-1.8649 -3.688,-3.7149 -5.55,-5.5558 -0.306,-0.3003 -0.336,-0.4624 -0.018,-0.7927 l 14.923,-15.4388 c 0.791,-0.8304 1.216,-1.9425 1.183,-3.0887 -0.034,-1.1462 -0.525,-2.2311 -1.363,-3.0133 -0.876,-0.8024 -1.993,-1.1815 -3.095,-1.1451 z m 4.406,20.5863 c -1.094,0.0244 -2.178,0.4648 -2.996,1.3157 -0.806,0.8152 -1.251,1.9189 -1.238,3.0649 0.014,1.146 0.485,2.2386 1.31,3.0344 1.342,1.3334 2.682,2.6698 4.018,4.0122 0.58,0.5796 0.573,0.5856 -0.021,1.1772 -3.871,3.8709 -7.745,7.7416 -11.619,11.6065 -0.895,0.8979 -1.405,1.9432 -1.339,3.1414 -0.045,1.1856 0.422,2.3334 1.282,3.1502 1.955,1.958 3.913,3.9099 5.865,5.8679 3.657,3.6667 7.306,7.3394 10.979,10.9941 1.652,1.6457 3.907,1.6517 5.453,0.5556 2.613,-1.8529 2.352,-5.0421 0.46,-6.904 -4.378,-4.3034 -8.685,-8.6697 -13.021,-13.0121 -0.613,-0.6157 -0.607,-0.6159 0.012,-1.2315 3.862,-3.8589 7.727,-7.7118 11.579,-11.5827 1.811,-1.8199 1.905,-4.4142 0.166,-6.195 -2.58,-2.6367 -5.192,-5.2434 -7.838,-7.814 -0.855,-0.8135 -1.958,-1.2052 -3.052,-1.1808 z m -42.174201,0.0248 c -0.2252,0.009 -0.6727,0.015 -1.0991,0.1591 -1.4547,0.4704 -2.5564,1.6685 -2.9032,3.1575 -0.3466,1.4892 0.1124,3.0509 1.2097,4.1155 1.4115,1.3604 2.7715,2.775 4.1739,4.1444 0.3123,0.3033 0.3458,0.4655 0.0124,0.7959 -3.9429,3.9189 -7.859,7.862 -11.793,11.793 -1.8799,1.8739 -1.9072,4.4716 -0.0393,6.3666 1.036,1.051 2.0843,2.0928 3.1264,3.1409 4.0451,4.0691 8.078,8.1474 12.1321,12.2075 1.3543,1.3574 3.568,1.5284 5.2798,0.4563 1.5826,-0.991 2.3423,-3.1323 1.7957,-4.8891 -0.3694,-1.1712 -1.2314,-1.949 -2.0422,-2.7688 -3.5917,-3.6277 -7.1891,-7.2524 -10.7958,-10.865 -0.3213,-0.3213 -0.3787,-0.5101 -0.0274,-0.8615 3.9701,-3.946 7.9161,-7.9194 11.8861,-11.8654 1.6667,-1.6577 1.7869,-4.3844 0.1442,-6.0601 -2.5946,-2.6396 -5.2344,-5.2342 -7.862,-7.8408 -0.8199,-0.8109 -1.8229,-1.201 -3.1983,-1.186 z m -35.2009,7.6972 c -1.0506,0.0329 -2.1191,0.4622 -3.0009,1.3327 -3.075,3.0433 -6.1297,6.1062 -9.1648,9.1891 -0.3904,0.3964 -0.5916,0.4088 -0.9849,-0.0057 -2.5016,-2.6336 -5.0396,-5.2316 -7.5562,-7.8532 -0.8648,-0.901 -1.9039,-1.3692 -2.7207,-1.3932 -3.2704,-0.0181 -5.3452,2.6817 -4.6365,5.4115 0.2673,1.018 0.9036,1.7417 1.5974,2.4624 l 11.9341,12.4204 c 2.541,2.6469 5.0926,5.2837 7.6548,7.9101 0.3905,0.4024 0.3755,0.6217 -0.0299,1.0031 -2.7447,2.5856 -5.4747,5.1893 -8.1984,7.799 -1.5887,1.5225 -1.7115,4.189 -0.2941,5.8167 1.7298,1.985 4.4596,2.1353 6.4115,0.2914 3.913,-3.6907 7.7959,-7.4115 11.6939,-11.1202 1.7087,-1.6247 1.7989,-4.4474 0.1473,-6.1381 -2.9911,-3.0602 -5.9345,-6.1654 -8.9075,-9.2465 -0.5646,-0.5826 -0.5733,-0.6789 -0.0238,-1.2314 3.1141,-3.1172 6.2495,-6.2101 9.3276,-9.3633 1.1862,-1.2162 1.4983,-2.7566 0.9157,-4.3543 -0.7114,-1.9388 -2.4136,-2.9853 -4.1646,-2.9305 z"/></svg>
