<?xml version="1.0" encoding="UTF-8" standalone="no"?>
<!-- Creator: CorelDRAW -->

<svg
   xmlns:dc="http://purl.org/dc/elements/1.1/"
   xmlns:cc="http://creativecommons.org/ns#"
   xmlns:rdf="http://www.w3.org/1999/02/22-rdf-syntax-ns#"
   xmlns:svg="http://www.w3.org/2000/svg"
   xmlns="http://www.w3.org/2000/svg"
   xmlns:sodipodi="http://sodipodi.sourceforge.net/DTD/sodipodi-0.dtd"
   xmlns:inkscape="http://www.inkscape.org/namespaces/inkscape"
   xml:space="preserve"
   width="1106.7579"
   height="231.94206"
   style="clip-rule:evenodd;fill-rule:evenodd;image-rendering:optimizeQuality;shape-rendering:geometricPrecision;text-rendering:geometricPrecision"
   viewBox="0 0 1106.7579 231.93751"
   version="1.1"
   id="svg10"
   sodipodi:docname="KanKolMusic.svg"
   inkscape:version="0.92.3 (2405546, 2018-03-11)"><metadata
   id="metadata14"><rdf:RDF><cc:Work
       rdf:about=""><dc:format>image/svg+xml</dc:format><dc:type
         rdf:resource="http://purl.org/dc/dcmitype/StillImage" /><dc:title></dc:title></cc:Work></rdf:RDF></metadata><sodipodi:namedview
   pagecolor="#ffffff"
   bordercolor="#666666"
   borderopacity="1"
   objecttolerance="10"
   gridtolerance="10"
   guidetolerance="10"
   inkscape:pageopacity="0"
   inkscape:pageshadow="2"
   inkscape:window-width="1920"
   inkscape:window-height="1001"
   id="namedview12"
   showgrid="false"
   inkscape:zoom="0.66130006"
   inkscape:cx="102.40363"
   inkscape:cy="181.56534"
   inkscape:window-x="-9"
   inkscape:window-y="-9"
   inkscape:window-maximized="1"
   inkscape:current-layer="svg10"
   showguides="false"
   inkscape:snap-global="false"
   fit-margin-top="0"
   fit-margin-left="0"
   fit-margin-right="0"
   fit-margin-bottom="0"
   inkscape:snap-bbox="true"
   inkscape:bbox-paths="true"
   inkscape:bbox-nodes="true"
   inkscape:snap-bbox-edge-midpoints="true"
   inkscape:snap-bbox-midpoints="true"
   inkscape:object-paths="true"
   inkscape:snap-intersection-paths="true"
   inkscape:snap-smooth-nodes="true"
   inkscape:snap-object-midpoints="true"
   inkscape:snap-center="true" />
 <defs
   id="defs4">
  <style
   type="text/css"
   id="style2">
   <![CDATA[
    .fil0 {fill:black;fill-rule:nonzero}
   ]]>
  </style>
 
  
  
 </defs>
 
<path
   style="opacity:1;fill:#000000;fill-rule:nonzero;stroke:none;stroke-width:4.13441038"
   d="M 1105.132,102.9743 Z"
   id="path856"
   inkscape:connector-curvature="0" /><path
   style="opacity:1;fill:#000000;fill-rule:nonzero;stroke:none;stroke-width:4.13441038"
   d="m 1106.758,104.32956 c 0,-42.567056 -34.661,-77.193576 -77.2573,-77.193576 h -37.41992 v 33.50365 h 37.41992 c 24.1084,0 43.7293,19.59628 43.7293,43.689966 0,24.32323 -19.6207,44.11953 -43.7293,44.11953 h -37.41992 v 33.49877 h 37.41992 c 42.596,0 77.2573,-34.82211 77.2573,-77.61859 z"
   id="path854"
   inkscape:connector-curvature="0" /><path
   style="opacity:1;fill:#000000;fill-rule:nonzero;stroke:none;stroke-width:4.13441038"
   d="M 692.69189,231.93978 Z"
   id="path852"
   inkscape:connector-curvature="0" /><path
   style="opacity:1;fill:#000000;fill-rule:nonzero;stroke:none;stroke-width:4.13441038"
   d="m 694.96015,231.93978 h 33.53292 V -0.00227635 h -33.53292 z"
   id="path850"
   inkscape:connector-curvature="0" /><path
   style="opacity:1;fill:#000000;fill-rule:nonzero;stroke:none;stroke-width:4.13441038"
   d="M 945.44616,162.7157 Z"
   id="path848"
   inkscape:connector-curvature="0" /><path
   style="opacity:1;fill:#000000;fill-rule:nonzero;stroke:none;stroke-width:4.13441038"
   d="m 949.7822,163.89995 -61.49665,-58.86839 61.2667,-59.045347 -24.18159,-24.16207 -86.53246,82.800757 86.762,83.43679 z"
   id="path846"
   inkscape:connector-curvature="0"
   sodipodi:nodetypes="ccccccc" /><path
   style="opacity:1;fill:#000000;fill-rule:nonzero;stroke:none;stroke-width:4.13441038"
   d="m 790.01056,180.2879 h 33.53292 V 25.456314 h -33.53292 z"
   id="path7"
   inkscape:connector-curvature="0" /><path
   inkscape:connector-curvature="0"
   id="path868"
   style="font-style:normal;font-variant:normal;font-weight:normal;font-stretch:normal;font-size:medium;line-height:1000%;font-family:Simpler;-inkscape-font-specification:Simpler;letter-spacing:0px;word-spacing:0px;opacity:1;fill:#000000;fill-opacity:1;stroke:none;stroke-width:17.50417328px;stroke-linecap:butt;stroke-linejoin:miter;stroke-opacity:1"
   d="M 554.5466,78.519836 H 530.73047 V 92.0075 h 7.41221 v 51.39892 h 16.40392 z" /><path
   inkscape:connector-curvature="0"
   id="path870"
   style="font-style:normal;font-variant:normal;font-weight:normal;font-stretch:normal;font-size:medium;line-height:1000%;font-family:Simpler;-inkscape-font-specification:Simpler;letter-spacing:0px;word-spacing:0px;opacity:1;fill:#000000;fill-opacity:1;stroke:none;stroke-width:17.50417328px;stroke-linecap:butt;stroke-linejoin:miter;stroke-opacity:1"
   d="M 485.13199,56.647966 H 469.09262 V 92.0075 h 33.17235 l -19.32016,51.39892 h 17.13297 L 519.5193,91.156914 V 78.519836 h -34.38731 z" /><path
   inkscape:connector-curvature="0"
   id="path872"
   style="font-style:normal;font-variant:normal;font-weight:normal;font-stretch:normal;font-size:medium;line-height:1000%;font-family:Simpler;-inkscape-font-specification:Simpler;letter-spacing:0px;word-spacing:0px;opacity:1;fill:#000000;fill-opacity:1;stroke:none;stroke-width:17.50417328px;stroke-linecap:butt;stroke-linejoin:miter;stroke-opacity:1"
   d="M 365.20209,78.519836 V 92.0075 h 32.07877 c 6.80472,0 10.32845,4.009849 10.32845,11.42196 v 39.97696 h 16.28233 v -39.4909 c 0,-7.65516 -1.09359,-11.421995 -2.55173,-14.45974 -3.28077,-6.683078 -10.20687,-10.935944 -20.04921,-10.935944 z m 16.16097,31.349704 h -16.16097 v 33.53688 h 16.16097 z" /><path
   inkscape:connector-curvature="0"
   id="path874"
   style="font-style:normal;font-variant:normal;font-weight:normal;font-stretch:normal;font-size:medium;line-height:1000%;font-family:Simpler;-inkscape-font-specification:Simpler;letter-spacing:0px;word-spacing:0px;opacity:1;fill:#000000;fill-opacity:1;stroke:none;stroke-width:17.50417328px;stroke-linecap:butt;stroke-linejoin:miter;stroke-opacity:1"
   d="m 323.82651,77.304725 c -8.50581,0 -16.03939,3.402311 -21.2644,10.935944 l -5.58934,-9.720833 H 278.2601 l 12.02953,21.993384 c -2.18719,12.75859 -4.25278,27.21834 -5.71092,42.8932 h 16.4039 c 1.58039,-14.21673 2.18719,-19.32016 2.55172,-22.23641 1.21586,-9.2348 2.91626,-18.22657 6.56157,-23.937575 2.6731,-4.252859 6.68294,-6.683062 11.66499,-6.683062 4.61735,0 8.14106,2.187187 10.44983,5.589467 2.43014,3.523819 3.64532,7.8982 3.64532,14.45976 0,15.43181 -6.56156,20.65676 -18.34816,20.65676 -1.82265,0 -2.91623,-0.12229 -4.37437,-0.24295 v 13.24462 c 1.70041,0.12229 4.00986,0.36454 7.04768,0.36454 7.65516,0 15.55327,-1.5797 21.50735,-6.80457 6.31861,-5.46797 10.81434,-15.67486 10.20688,-29.89156 -0.36453,-9.356318 -2.91625,-17.497519 -9.11328,-23.33001 -4.86049,-4.617397 -11.42205,-7.290628 -18.95563,-7.290628 z" /><path
   inkscape:connector-curvature="0"
   id="path876"
   style="font-style:normal;font-variant:normal;font-weight:normal;font-stretch:normal;font-size:medium;line-height:1000%;font-family:Simpler;-inkscape-font-specification:Simpler;letter-spacing:0px;word-spacing:0px;opacity:1;fill:#000000;fill-opacity:1;stroke:none;stroke-width:17.50417328px;stroke-linecap:butt;stroke-linejoin:miter;stroke-opacity:1"
   d="M 264.54248,78.519836 H 240.72659 V 92.0075 h 7.41199 v 51.39892 h 16.4039 z" /><path
   inkscape:connector-curvature="0"
   id="path880"
   style="font-style:normal;font-variant:normal;font-weight:normal;font-stretch:normal;font-size:medium;line-height:1000%;font-family:Simpler;-inkscape-font-specification:Simpler;letter-spacing:0px;word-spacing:0px;opacity:1;fill:#000000;fill-opacity:1;stroke:none;stroke-width:17.50417328px;stroke-linecap:butt;stroke-linejoin:miter;stroke-opacity:1"
   d="M 172.69365,78.519836 H 149.1207 V 92.0075 h 7.4122 v 28.67646 h 16.16075 z" /><path
   inkscape:connector-curvature="0"
   id="path884"
   style="font-style:normal;font-variant:normal;font-weight:normal;font-stretch:normal;font-size:medium;line-height:1000%;font-family:Simpler;-inkscape-font-specification:Simpler;letter-spacing:0px;word-spacing:0px;opacity:1;fill:#000000;fill-opacity:1;stroke:none;stroke-width:17.50417328px;stroke-linecap:butt;stroke-linejoin:miter;stroke-opacity:1"
   d="M 0,78.519836 V 92.0075 h 32.07875 c 6.80452,0 10.32847,4.009849 10.32847,11.42196 v 39.97696 h 16.28233 v -39.4909 c 0,-7.65516 -1.09359,-11.421995 -2.55172,-14.45974 C 52.85704,82.772702 45.93095,78.519836 36.08861,78.519836 Z M 16.16096,109.86954 H 0 v 33.53688 h 16.16096 z" /><g
   id="g908"
   style="opacity:1;fill:#000000;stroke:none;stroke-width:0.78750014"
   transform="matrix(1.2698412,0,0,1.2698412,584.42652,-385.04023)"><path
     inkscape:connector-curvature="0"
     id="path899"
     d="m -355.1304,365.05361 h -48.61032 v 10.71721 h 35.1181 l -14.1621,40.47665 h 13.3009 l 14.35342,-40.76371 z"
     style="font-style:normal;font-variant:normal;font-weight:normal;font-stretch:normal;font-size:medium;line-height:1000%;font-family:Simpler;-inkscape-font-specification:Simpler;letter-spacing:0px;word-spacing:0px;fill:#000000;fill-opacity:1;stroke:none;stroke-width:13.78453922px;stroke-linecap:butt;stroke-linejoin:miter;stroke-opacity:1" /><rect
     y="425.64716"
     x="-407.45258"
     height="11.111115"
     width="13.008138"
     id="rect901"
     style="opacity:1;fill:#000000;fill-opacity:1;stroke:none;stroke-width:1.48818934;stroke-linecap:square;stroke-linejoin:miter;stroke-miterlimit:4;stroke-dasharray:none;stroke-dashoffset:0;stroke-opacity:1" /><rect
     style="opacity:1;fill:#000000;fill-opacity:1;stroke:none;stroke-width:1.48818934;stroke-linecap:square;stroke-linejoin:miter;stroke-miterlimit:4;stroke-dasharray:none;stroke-dashoffset:0;stroke-opacity:1"
     id="rect903"
     width="3.9295573"
     height="63.008163"
     x="-398.37399"
     y="373.75012" /></g><g
   id="g916"
   transform="matrix(1.2698412,0,0,1.2698412,1082.7574,-385.04023)"
   style="opacity:1;fill:#000000;stroke:none;stroke-width:0.78750014"><path
     style="font-style:normal;font-variant:normal;font-weight:normal;font-stretch:normal;font-size:medium;line-height:1000%;font-family:Simpler;-inkscape-font-specification:Simpler;letter-spacing:0px;word-spacing:0px;fill:#000000;fill-opacity:1;stroke:none;stroke-width:13.78453922px;stroke-linecap:butt;stroke-linejoin:miter;stroke-opacity:1"
     d="m -355.1304,365.05361 h -48.61032 v 10.71721 h 35.1181 l -14.1621,40.47665 h 13.3009 l 14.35342,-40.76371 z"
     id="path910"
     inkscape:connector-curvature="0" /><rect
     style="opacity:1;fill:#000000;fill-opacity:1;stroke:none;stroke-width:1.48818934;stroke-linecap:square;stroke-linejoin:miter;stroke-miterlimit:4;stroke-dasharray:none;stroke-dashoffset:0;stroke-opacity:1"
     id="rect912"
     width="13.008138"
     height="11.111115"
     x="-407.45258"
     y="425.64716" /><rect
     y="373.75012"
     x="-398.37399"
     height="63.008163"
     width="3.9295573"
     id="rect914"
     style="opacity:1;fill:#000000;fill-opacity:1;stroke:none;stroke-width:1.48818934;stroke-linecap:square;stroke-linejoin:miter;stroke-miterlimit:4;stroke-dasharray:none;stroke-dashoffset:0;stroke-opacity:1" /></g><path
   inkscape:connector-curvature="0"
   id="path838"
   style="font-style:normal;font-variant:normal;font-weight:bold;font-stretch:normal;font-size:medium;line-height:100%;font-family:SimplerPro;-inkscape-font-specification:'SimplerPro Bold';letter-spacing:0px;word-spacing:0px;fill:#000000;fill-opacity:1;stroke:none;stroke-width:0.99999988px;stroke-linecap:butt;stroke-linejoin:miter;stroke-opacity:1"
   d="m 200.79579,143.15406 q -2.76832,-8.42531 -4.0923,-12.51761 -1.20361,-4.21266 -2.64795,-10.83255 -1.44434,-6.6199 -1.44434,-11.43436 0,-10.47147 5.29591,-16.369192 H 185.87094 V 78.519839 h 38.03429 V 92.000348 H 215.841 q -4.81447,0 -7.2217,2.88868 -2.40723,2.888681 -2.40723,7.703152 0,7.82351 11.07327,36.34923 0.96289,2.76831 1.5647,4.21265 z" /></svg>