<?xml version="1.0" encoding="UTF-8"?><svg id="Layer_1" xmlns="http://www.w3.org/2000/svg" viewBox="0 0 256 150"><defs><style>.cls-1{fill:#e40041;}.cls-1,.cls-2,.cls-3{stroke-width:0px;}.cls-2{fill:#070c68;}.cls-3{fill:#fff;}</style></defs><rect class="cls-2" x="-7.5" y="-6" width="271" height="160"/><path class="cls-1" d="M50.91,28.86l23.95-.22v65.11h-23.98l.04-64.89Z"/><path class="cls-1" d="M80.79,60.64c0-18.97,13.95-32.92,33.1-32.92s32.92,13.95,32.92,32.92-13.95,33.1-32.83,33.1-33.19-13.95-33.19-33.1Z"/><path class="cls-1" d="M189.46,72.92c7.87-9.2,10.94-16.49,10.94-24.34,0-12.83-6.66-20.74-22.86-20.74h-2.44.09c-18.38.16-23.82,10.04-23.6,28.6h23.38l-11.96,16.66h0l-15.03,20.65h57.15v-20.74l-15.67-.09Z"/><rect class="cls-3" x="50.87" y="101.04" width="154.01" height="21.23"/><polygon class="cls-2" points="92.13 105.41 81.04 105.41 81.04 108.27 88.86 108.27 88.86 115.56 81.04 115.56 81.04 118.42 93.88 118.42 93.88 115.56 92.13 115.56 92.13 105.41"/><rect class="cls-2" x="96.96" y="105.41" width="3.27" height="6.97"/><polygon class="cls-2" points="115.63 105.41 104.53 105.41 104.53 108.27 112.35 108.27 112.35 115.56 104.53 115.56 104.53 118.42 117.38 118.42 117.38 115.56 115.63 115.56 115.63 105.41"/><polygon class="cls-2" points="133.96 111.96 133.96 105.41 130.69 105.41 130.69 110.57 129.37 111.68 124.71 105.41 120.99 105.41 124.13 109.65 121.38 111.86 121.38 118.42 124.66 118.42 124.66 113.26 126 112.16 130.64 118.42 134.38 118.42 131.22 114.15 133.96 111.96"/><polygon class="cls-2" points="149.2 103.63 145.95 103.63 145.95 108.27 153.81 108.27 153.81 112.62 149.15 117.86 149.15 118.42 152.68 118.42 157.08 113.39 157.08 105.41 149.2 105.41 149.2 103.63"/><polygon class="cls-2" points="162.25 105.41 162.25 115.56 159.98 115.56 159.98 118.42 165.52 118.42 165.52 108.27 171.45 108.27 171.45 118.42 174.72 118.42 174.72 105.41 162.25 105.41"/></svg>